# xmcd
#
# Track frame offsets: 
#        150
#        25440
#        49505
#        66225
#        91745
#        112940
#        127617
#        152735
#        176130
#        207242
#
# Disc length: 3067 seconds
#
# Revision: 5
# Processed by: cddbd v1.5.2PL0 Copyright (c) Steve Scherf et al.
# Submitted via: ExactAudioCopy v0.99pb5
#
DISCID=7a0bf90a
DTITLE=Matt Wilson - Arts and Crafts
DYEAR=2001
DGENRE=Jazz
TTITLE0=Stompin' Grounds
TTITLE1=Lester
TTITLE2=Webb City
TTITLE3=Beija Flor
TTITLE4=Final Answer
TTITLE5=There's No You
TTITLE6=Arts and Crafts
TTITLE7=Old Gospel
TTITLE8=Love Walked In
TTITLE9=All Through The Night
EXTD=YEAR: 2001
EXTT0=
EXTT1=
EXTT2=
EXTT3=
EXTT4=
EXTT5=
EXTT6=
EXTT7=
EXTT8=
EXTT9=
PLAYORDER=
